<?xml version="1.0" standalone="no"?>
<!DOCTYPE svg PUBLIC "-//W3C//DTD SVG 20010904//EN"
 "http://www.w3.org/TR/2001/REC-SVG-20010904/DTD/svg10.dtd">
<svg version="1.0" xmlns="http://www.w3.org/2000/svg"
 width="75.000000pt" height="75.000000pt" viewBox="0 0 75.000000 75.000000"
 preserveAspectRatio="xMidYMid meet">
<metadata>
Created by potrace 1.14, written by Peter Selinger 2001-2017
</metadata>
<g transform="translate(0.000000,75.000000) scale(0.100000,-0.100000)"
fill="#000000" stroke="none">
<path d="M264 706 c-56 -18 -144 -78 -174 -118 -14 -18 -37 -57 -52 -88 -24
-49 -27 -65 -25 -153 2 -74 6 -100 17 -107 8 -5 12 -10 7 -10 -12 0 33 -81 62
-113 14 -16 41 -39 60 -52 34 -24 35 -24 48 -5 17 23 10 38 -35 75 -36 31 -82
103 -85 134 -1 12 -4 21 -8 21 -7 0 -4 114 4 146 21 82 98 171 167 194 22 7
40 17 40 21 0 4 37 6 83 5 67 -2 91 -7 132 -29 55 -29 105 -70 105 -86 0 -6 6
-14 13 -18 23 -13 50 -101 50 -157 0 -58 -21 -146 -34 -146 -5 0 -9 -6 -9 -14
0 -16 -55 -77 -84 -93 -25 -14 -15 -63 13 -63 23 0 91 62 124 115 28 44 55
128 52 162 -1 12 2 20 7 17 4 -3 8 0 8 5 0 6 -4 11 -8 11 -4 0 -7 12 -6 28 2
38 -23 118 -50 161 -32 51 -90 106 -126 121 -16 7 -30 17 -30 22 0 6 -6 8 -14
5 -7 -3 -19 0 -25 6 -17 17 -179 19 -227 3z"/>
<path d="M293 613 c-13 -2 -23 -9 -23 -14 0 -6 -4 -8 -9 -5 -16 11 -102 -77
-126 -128 -49 -107 -4 -262 92 -313 19 -10 23 -9 28 8 4 10 11 19 18 19 6 0
-8 20 -32 44 -59 60 -77 125 -53 194 21 58 38 83 76 107 35 23 45 26 114 32
36 3 52 1 52 -7 0 -6 6 -10 13 -7 21 7 84 -51 108 -99 17 -37 20 -57 16 -100
-3 -30 -12 -61 -21 -69 -8 -8 -17 -24 -21 -35 -3 -10 -14 -22 -25 -25 -26 -8
-32 -31 -12 -55 l17 -21 37 31 c75 62 109 186 77 281 -33 97 -139 170 -243
168 -34 -1 -71 -4 -83 -6z"/>
<path d="M338 514 c-3 -3 -12 -6 -20 -8 -33 -4 -85 -63 -80 -88 1 -5 -2 -8 -6
-8 -11 0 -7 -68 6 -100 14 -35 46 -62 65 -54 25 9 28 34 7 61 -28 36 -26 84 5
113 55 52 133 20 139 -57 2 -24 1 -43 -3 -43 -3 0 -12 -9 -19 -20 -9 -15 -10
-26 -2 -40 13 -25 21 -25 47 -2 41 35 56 96 38 152 -9 27 -49 71 -80 87 -23
11 -88 16 -97 7z"/>
</g>
</svg>
